<mxfile host="app.diagrams.net" modified="2023-06-20T11:44:39.499Z" agent="Mozilla/5.0 (Windows NT 10.0; Win64; x64) AppleWebKit/537.36 (KHTML, like Gecko) Chrome/114.0.0.0 Safari/537.36" version="21.5.0" etag="giYPnIBUWYCGPWxtk-a3" type="github">
  <diagram name="Page-1" id="J6Xh9dv1IMjy6DRI6hfw">
    <mxGraphModel>
      <root>
        <mxCell id="0" />
        <mxCell id="1" parent="0" />
      </root>
    </mxGraphModel>
  </diagram>
</mxfile>
